PathFileType	4	(X/Y/Z)	/Users/itak/Documents/Research/Walk-IL/dataset/trc/00569_00009.trc
DataRate	CameraRate	NumFrames	NumMarkers	Units	OrigDataRate	OrigDataStartFrame	OrigNumFrames
100.000000	100.000000	4	53	mm	100.000000	210	561
Frame#	Time	RPSI			LPSI			L3			STRN			T10			C7			CLAV			RBAK			LBAK			LSHO			LUPA			LAEL			LAOL			LWTS			LWPS			LFRA			LIFD			LHPS			LHTS			RSHO			RUPA			RAEL			RAOL			RWTS			RWPS			RFRA			RIFD			RHTS			RHPS			RBHD			LFHD			RFHD			LBHD			LHIP			RHIP			RASI			LASI			LKNE			LTHI			LANK			LTIP			LTOE			LMT1			LMT5			LHEE			RKNE			RTHI			RANK			RTIP			RTOE			RMT1			RMT5			RHEE			
		X1	Y1	Z1	X2	Y2	Z2	X3	Y3	Z3	X4	Y4	Z4	X5	Y5	Z5	X6	Y6	Z6	X7	Y7	Z7	X8	Y8	Z8	X9	Y9	Z9	X10	Y10	Z10	X11	Y11	Z11	X12	Y12	Z12	X13	Y13	Z13	X14	Y14	Z14	X15	Y15	Z15	X16	Y16	Z16	X17	Y17	Z17	X18	Y18	Z18	X19	Y19	Z19	X20	Y20	Z20	X21	Y21	Z21	X22	Y22	Z22	X23	Y23	Z23	X24	Y24	Z24	X25	Y25	Z25	X26	Y26	Z26	X27	Y27	Z27	X28	Y28	Z28	X29	Y29	Z29	X30	Y30	Z30	X31	Y31	Z31	X32	Y32	Z32	X33	Y33	Z33	X34	Y34	Z34	X35	Y35	Z35	X36	Y36	Z36	X37	Y37	Z37	X38	Y38	Z38	X39	Y39	Z39	X40	Y40	Z40	X41	Y41	Z41	X42	Y42	Z42	X43	Y43	Z43	X44	Y44	Z44	X45	Y45	Z45	X46	Y46	Z46	X47	Y47	Z47	X48	Y48	Z48	X49	Y49	Z49	X50	Y50	Z50	X51	Y51	Z51	X52	Y52	Z52	X53	Y53	Z53	

211	2.1	-772.8740234375	992.039306640625	-125.4033279418945	-768.6640625	991.793701171875	-258.9813537597656	-760.775634765625	1095.503295898438	-196.5561218261719	-518.1526489257812	1272.731201171875	-191.0985412597656	-762.1514892578125	1220.366943359375	-196.8039398193359	-703.0909423828125	1491.620239257812	-169.3068695068359	-532.6615600585938	1384.178344726562	-183.7105560302734	-781.4176025390625	1364.455200195312	-92.35542297363281	-738.71435546875	1446.174682617188	-264.2648620605469	-638.1316528320312	1471.119018554688	-345.1112365722656	-654.1497192382812	1349.52783203125	-430.99267578125	-644.7879638671875	1129.895263671875	-465.9646911621094	-733.6361083984375	1123.772094726562	-418.42236328125	-570.5474243164062	879.7326049804688	-429.0467224121094	-613.2044677734375	864.429931640625	-503.5275573730469	-626.8731689453125	1043.185302734375	-477.2124938964844	-587.8828735351562	711.33447265625	-437.9560852050781	-610.4378662109375	803.5963745117188	-498.4476928710938	-560.517333984375	801.7095947265625	-452.4289245605469	-650.2923583984375	1442.09814453125	-15.73035526275635	-673.2807006835938	1375.600219726562	48.95990753173828	-695.5706176757812	1087.078125	84.67118072509766	-745.4376220703125	1070.806762695312	49.28941345214844	-559.3635864257812	865.5687866210938	61.48722457885742	-614.8865356445312	844.3206176757812	120.057861328125	-687.3778686523438	1031.113891601562	92.54114532470703	-553.7958984375	692.0321655273438	60.94747543334961	-534.8958740234375	773.0323486328125	79.28054809570312	-598.234619140625	769.7210083007812	118.4891815185547	-606.401123046875	1665.328857421875	-91.44036865234375	-432.526123046875	1667.219482421875	-204.6847534179688	-468.6407165527344	1658.48193359375	-65.52288055419922	-558.4986572265625	1672.509033203125	-249.7562866210938	-638.0515747070312	916.1119995117188	-386.55419921875	-643.798583984375	925.8668212890625	-5.389542579650879	-559.364990234375	960.919677734375	-61.99900436401367	-559.7216186523438	945.2003784179688	-337.6687622070312	-542.210693359375	472.4913635253906	-377.4069519042969	-566.1845092773438	643.688232421875	-390.3695678710938	-958.4573364257812	206.6934967041016	-379.4243469238281	-760.6111450195312	338.070068359375	-384.3777770996094	-825.9780883789062	46.40945053100586	-329.6152648925781	-865.5965576171875	103.330940246582	-292.2366027832031	-892.5274658203125	107.4884567260742	-394.3598022460938	-988.4761962890625	266.1131591796875	-324.5847473144531	-526.9844360351562	496.5234069824219	-84.23184204101562	-579.1951293945312	777.4789428710938	-14.75660228729248	-615.3195190429688	38.15746688842773	-151.1255950927734	-521.9329833984375	350.9807739257812	-110.5278244018555	-390.4433288574219	38.86359786987305	-161.9204254150391	-449.2757873535156	35.01306533813477	-214.0443725585938	-487.47412109375	42.4922981262207	-117.3148651123047	-661.253173828125	25.49809455871582	-212.0201721191406	
212	2.11	-766.2185668945312	992.5799560546875	-124.3464508056641	-761.4721069335938	992.3251342773438	-257.9171447753906	-754.0657348632812	1096.353881835938	-194.967041015625	-511.267578125	1273.697265625	-188.9878082275391	-755.28173828125	1221.180786132812	-195.0150756835938	-696.2130737304688	1492.44091796875	-167.3659820556641	-525.7392578125	1385.12939453125	-181.706787109375	-774.5175170898438	1365.322875976562	-90.37039947509766	-731.7891845703125	1446.98876953125	-262.3045959472656	-631.2275390625	1471.948486328125	-343.1239929199219	-647.1829223632812	1350.450805664062	-429.0990295410156	-637.4613037109375	1130.9052734375	-464.3958435058594	-726.291015625	1124.5068359375	-416.8287048339844	-562.1755981445312	881.1162719726562	-427.7525024414062	-604.844482421875	865.64453125	-502.1820068359375	-619.2843627929688	1044.303344726562	-475.761962890625	-579.0491333007812	712.8344116210938	-436.8872985839844	-601.6524658203125	804.8599853515625	-497.1429138183594	-551.7449340820312	803.1907348632812	-451.218505859375	-643.4165649414062	1443.1064453125	-13.77720737457275	-666.2188720703125	1376.677612304688	51.01705932617188	-686.9217529296875	1088.0966796875	87.16680145263672	-736.67236328125	1071.34716796875	51.9050178527832	-548.0436401367188	868.3982543945312	63.45926666259766	-603.072509765625	846.4146728515625	122.2298126220703	-678.05810546875	1032.140380859375	94.91917419433594	-539.8917846679688	695.080078125	63.04761123657227	-522.131103515625	776.3380126953125	81.33290863037109	-585.3416137695312	772.0960083007812	120.5008087158203	-599.579345703125	1666.106567382812	-89.45777130126953	-425.3174743652344	1667.901245117188	-202.0209045410156	-461.9402465820312	1659.104125976562	-63.00043487548828	-551.0805053710938	1673.372314453125	-247.5811614990234	-629.4083862304688	917.4373779296875	-384.7272644042969	-638.0005493164062	926.010498046875	-3.625303030014038	-552.9556274414062	961.5390625	-59.53474044799805	-551.8040161132812	946.8072509765625	-335.1546325683594	-524.0771484375	475.7720031738281	-374.9934692382812	-551.9757080078125	646.3587036132812	-388.46435546875	-938.0579833984375	207.4056854248047	-380.2969665527344	-741.409423828125	339.9065856933594	-383.5836181640625	-801.9873657226562	48.85630798339844	-334.6089172363281	-842.7786254882812	103.8286743164062	-295.4891662597656	-869.880859375	110.2022094726562	-397.6556091308594	-969.3125610351562	264.7839660644531	-324.0648193359375	-524.5372314453125	495.9327392578125	-83.6474609375	-574.17333984375	777.2538452148438	-13.43878841400146	-615.3524169921875	38.24745941162109	-151.2156066894531	-520.325927734375	350.4607543945312	-110.2409439086914	-390.4707336425781	38.83820343017578	-162.0281982421875	-449.2228698730469	34.91733932495117	-214.1123046875	-487.4865112304688	42.51528549194336	-117.3838882446289	-661.370361328125	25.59609794616699	-211.9593505859375	
213	2.12	-759.62353515625	993.0711669921875	-123.4104461669922	-754.2513427734375	992.8673095703125	-256.9757690429688	-747.4417724609375	1097.153930664062	-193.4466552734375	-504.4364929199219	1274.63427734375	-186.8362121582031	-748.5006103515625	1221.959838867188	-193.2519073486328	-689.3817749023438	1493.224487304688	-165.4678039550781	-518.868408203125	1386.055053710938	-179.6855621337891	-767.673828125	1366.158935546875	-88.4254150390625	-724.8970336914062	1447.754760742188	-260.3758239746094	-624.351318359375	1472.725952148438	-341.154541015625	-640.237060546875	1351.30908203125	-427.2085266113281	-630.1860961914062	1131.857177734375	-462.8193054199219	-718.9673461914062	1125.168334960938	-415.1734924316406	-553.7050170898438	882.5025024414062	-426.4315795898438	-596.4409790039062	866.8076782226562	-500.7683715820312	-611.7122192382812	1045.364624023438	-474.2928161621094	-569.9959716796875	714.36474609375	-435.79052734375	-592.7487182617188	806.0939331054688	-495.763916015625	-542.8123168945312	804.69482421875	-449.9866943359375	-636.6217651367188	1444.12060546875	-11.83607578277588	-659.2618408203125	1377.772705078125	53.05796813964844	-678.3949584960938	1089.132080078125	89.60859680175781	-728.035400390625	1071.907958984375	54.47227096557617	-536.819580078125	871.3031005859375	65.42402648925781	-591.370849609375	848.581298828125	124.3428344726562	-668.81103515625	1033.191650390625	97.18521881103516	-526.140625	698.240478515625	65.05454254150391	-509.5042724609375	779.7124633789062	83.33144378662109	-572.6034545898438	774.5906372070312	122.4480056762695	-592.7688598632812	1666.877685546875	-87.52889251708984	-418.1051330566406	1668.493896484375	-199.4075164794922	-455.2496948242188	1659.6767578125	-60.52534484863281	-543.6648559570312	1674.17138671875	-245.4600677490234	-620.6354370117188	918.7808837890625	-382.9455261230469	-632.3590087890625	926.1050415039062	-1.886012673377991	-546.6026611328125	962.15234375	-57.06082534790039	-543.867431640625	948.395263671875	-332.5523376464844	-506.1793518066406	479.2099609375	-372.1538391113281	-537.8428344726562	649.1162719726562	-386.3204345703125	-916.7916259765625	206.6744689941406	-381.2300109863281	-722.0042114257812	341.1918334960938	-382.6024780273438	-776.6421508789062	50.85674285888672	-338.9365844726562	-818.9037475585938	103.5771636962891	-298.3867797851562	-845.9132690429688	111.842155456543	-400.6536865234375	-949.6333618164062	261.9318237304688	-323.8061828613281	-522.1830444335938	495.330078125	-83.04759979248047	-569.3245239257812	776.9722290039062	-12.1018180847168	-615.3814697265625	38.33942031860352	-151.3074645996094	-518.7781372070312	349.9412841796875	-109.9367141723633	-390.4949035644531	38.80916595458984	-162.1294860839844	-449.1872253417969	34.82518005371094	-214.1638031005859	-487.4970703125	42.53656005859375	-117.4459533691406	-661.52490234375	25.73706436157227	-211.8438873291016	
214	2.13	-753.07568359375	993.5170288085938	-122.5821838378906	-746.995849609375	993.4105834960938	-256.1438598632812	-740.8781127929688	1097.890380859375	-191.9962158203125	-497.643310546875	1275.531616210938	-184.6423645019531	-741.8004760742188	1222.691650390625	-191.5128479003906	-682.5901489257812	1493.959716796875	-163.6067504882812	-512.0391235351562	1386.9404296875	-177.6444244384766	-760.8764038085938	1366.948364257812	-86.51571655273438	-718.0283813476562	1448.46044921875	-258.4745178222656	-617.4923095703125	1473.438720703125	-339.1986083984375	-633.2979125976562	1352.091186523438	-425.318115234375	-622.9495239257812	1132.740844726562	-461.2352294921875	-711.6580200195312	1125.748779296875	-413.4686584472656	-545.1444702148438	883.8726806640625	-425.0672302246094	-587.9871826171875	867.906494140625	-499.2814331054688	-604.1417846679688	1046.357055664062	-472.7986755371094	-560.7264404296875	715.8995361328125	-434.6367797851562	-583.7406616210938	807.2828369140625	-494.3062438964844	-533.7355346679688	806.2006225585938	-448.7135009765625	-629.8975830078125	1445.122192382812	-9.903274536132812	-652.4019775390625	1378.865478515625	55.08506011962891	-670.0120849609375	1090.1669921875	92.00613403320312	-719.551513671875	1072.474975585938	57.00643157958984	-525.716064453125	874.2685546875	67.37733459472656	-579.8042602539062	850.7968139648438	126.392692565918	-659.6583862304688	1034.25048828125	99.35049438476562	-512.5440063476562	701.4927368164062	66.95668792724609	-497.0282287597656	783.1422729492188	85.26393127441406	-560.0335083007812	777.183349609375	124.3379669189453	-585.9791870117188	1667.63134765625	-85.64722442626953	-410.8995971679688	1669.00244140625	-196.8368530273438	-448.5760803222656	1660.203125	-58.09055709838867	-536.2608032226562	1674.90087890625	-243.3867034912109	-611.7402954101562	920.1170654296875	-381.1933898925781	-626.8619384765625	926.1530151367188	-0.1675498783588409	-540.3259887695312	962.7269897460938	-54.56738662719727	-535.9085083007812	949.9406127929688	-329.8678283691406	-488.5487976074219	482.7535400390625	-368.8909912109375	-523.8090209960938	651.9232177734375	-383.9322509765625	-894.66015625	204.5128936767578	-382.2305297851562	-702.392822265625	341.8908386230469	-381.4476928710938	-750.0939331054688	52.32730484008789	-342.4348754882812	-794.0831298828125	102.6123199462891	-300.8340454101562	-820.7245483398438	112.3813018798828	-403.256103515625	-929.4053344726562	257.6243286132812	-323.880126953125	-519.9118041992188	494.7168579101562	-82.42739105224609	-564.6326904296875	776.6382446289062	-10.74242687225342	-615.405517578125	38.43016052246094	-151.40234375	-517.2855224609375	349.4211730957031	-109.6119689941406	-390.5157165527344	38.77819442749023	-162.2231903076172	-449.1718444824219	34.73638916015625	-214.1972961425781	-487.5062255859375	42.55519866943359	-117.5016479492188	-661.7109985351562	25.91283226013184	-211.682861328125	
